<svg xmlns="http://www.w3.org/2000/svg" preserveAspectRatio="xMidYMid meet" overflow="visible" viewBox="41.63 4.48 258.38 20.42"><defs id="SvgjsDefs1002"/>
<g id="SvgjsG1008" transform="scale(0.4625875162288015)" opacity="1">
<g id="SvgjsG1011" class="text" transform="translate(365.64591714868493, 53.2119983215332) scale(1)" light-content="false" fill="#8c57ff"><path d="M-257.15 -22.15C-257.43 -24.53 -257.66 -26.19 -257.86 -27.13L-261.05 -42.83L-272.74 -42.83L-264.54 -12.3C-265.32 -10.72 -266.11 -9.7 -266.92 -9.23C-267.73 -8.76 -268.95 -8.53 -270.57 -8.53C-272 -8.53 -273.68 -8.76 -275.61 -9.23L-275.61 -0.23C-273.42 0.31 -271.34 0.59 -269.37 0.59C-265.66 0.59 -262.62 -0.17 -260.26 -1.67C-257.9 -3.17 -255.64 -5.84 -253.49 -9.67L-234.83 -42.83L-247.49 -42.83L-254.93 -26.95C-255.81 -24.94 -256.46 -23.34 -256.89 -22.15Z M-214.88 -33.96C-213.24 -33.96 -211.66 -33.69 -210.13 -33.15C-208.61 -32.61 -206.94 -31.81 -205.12 -30.73L-200.79 -39.67C-205 -42.23 -209.7 -43.51 -214.88 -43.51C-219.27 -43.51 -223.17 -42.4 -226.58 -40.2C-229.99 -37.99 -232.69 -34.72 -234.67 -30.38C-236.65 -26.04 -237.64 -21.28 -237.64 -16.08C-237.64 -10.77 -236.27 -6.67 -233.53 -3.76C-230.78 -0.86 -226.87 0.59 -221.79 0.59C-217.16 0.59 -212.87 -0.29 -208.9 -2.05L-208.9 -11.51C-211.15 -10.56 -213.1 -9.88 -214.76 -9.48C-216.42 -9.08 -218.06 -8.88 -219.68 -8.88C-221.73 -8.88 -223.31 -9.52 -224.4 -10.81C-225.49 -12.1 -226.04 -14.05 -226.04 -16.67C-226.04 -19.79 -225.56 -22.7 -224.59 -25.37C-223.62 -28.05 -222.29 -30.15 -220.59 -31.67C-218.89 -33.19 -216.99 -33.96 -214.88 -33.96Z M-180.45 0L-169 0L-160.06 -42.83L-188.19 -42.83C-191.65 -29.45 -194.37 -20.25 -196.36 -15.23C-197.03 -13.55 -197.67 -12.23 -198.3 -11.26C-198.92 -10.3 -199.54 -9.6 -200.14 -9.17C-200.75 -8.74 -201.57 -8.53 -202.6 -8.53C-202.97 -8.53 -203.34 -8.55 -203.72 -8.6C-204.09 -8.65 -204.71 -8.82 -205.59 -9.11L-205.59 -0.18C-204.15 0.33 -202.63 0.59 -201.05 0.59C-198.33 0.59 -196.1 0.18 -194.36 -0.64C-192.61 -1.46 -191.05 -2.79 -189.7 -4.63C-188.34 -6.46 -186.96 -9.12 -185.55 -12.6C-184.52 -15.04 -182.42 -22.08 -179.25 -33.72L-173.42 -33.72Z M-139.91 -22.15C-140.18 -24.53 -140.42 -26.19 -140.61 -27.13L-143.8 -42.83L-155.49 -42.83L-147.29 -12.3C-148.07 -10.72 -148.87 -9.7 -149.68 -9.23C-150.49 -8.76 -151.7 -8.53 -153.33 -8.53C-154.75 -8.53 -156.43 -8.76 -158.36 -9.23L-158.36 -0.23C-156.18 0.31 -154.1 0.59 -152.12 0.59C-148.41 0.59 -145.38 -0.17 -143.01 -1.67C-140.65 -3.17 -138.39 -5.84 -136.25 -9.67L-117.58 -42.83L-130.24 -42.83L-137.68 -26.95C-138.56 -24.94 -139.21 -23.34 -139.64 -22.15Z M-110.43 0L-103.34 -33.49L-89.55 -33.49L-87.58 -42.83L-112.84 -42.83L-121.89 0Z M-70.3 -8.03L-70 0L-58.84 0L-62.45 -42.83L-77.18 -42.83L-98.98 0L-87.08 0L-83.42 -8.03ZM-79.23 -17.17L-72.88 -31.08C-72.15 -32.65 -71.56 -34.27 -71.09 -35.95C-71.17 -34.85 -71.21 -33.57 -71.21 -32.11L-71.15 -29.59L-70.65 -17.17Z M-3.24 -33.19C-3.24 -36.3 -4.48 -38.78 -6.97 -40.65C-9.46 -42.51 -12.76 -43.45 -16.86 -43.45C-19.91 -43.45 -22.77 -43.09 -25.46 -42.36C-28.14 -41.64 -30.85 -40.44 -33.59 -38.76L-29.46 -30.67C-26 -33.1 -22.76 -34.31 -19.73 -34.31C-18.13 -34.31 -16.97 -33.99 -16.26 -33.37C-15.55 -32.74 -15.19 -31.98 -15.19 -31.08C-15.19 -29.66 -15.85 -28.61 -17.17 -27.95C-18.49 -27.29 -20.52 -26.95 -23.28 -26.95L-27.11 -26.95L-29.11 -17.81L-25.56 -17.81C-23.02 -17.81 -21.17 -17.49 -20 -16.83C-18.82 -16.18 -18.24 -15.15 -18.24 -13.74C-18.24 -11.96 -18.86 -10.65 -20.1 -9.8C-21.34 -8.95 -23.48 -8.53 -26.53 -8.53C-28.79 -8.53 -31 -8.78 -33.15 -9.29C-35.3 -9.79 -37.1 -10.46 -38.57 -11.28L-38.57 -1.73C-37.34 -1.01 -35.53 -0.44 -33.13 -0.03C-30.74 0.38 -28.04 0.59 -25.03 0.59C-19.04 0.59 -14.48 -0.58 -11.35 -2.9C-8.23 -5.22 -6.67 -8.64 -6.67 -13.15C-6.67 -15.56 -7.33 -17.56 -8.66 -19.16C-9.99 -20.76 -11.86 -21.84 -14.28 -22.38L-14.28 -22.62C-10.88 -22.89 -8.19 -23.97 -6.21 -25.85C-4.23 -27.74 -3.24 -30.19 -3.24 -33.19Z M22.75 -8.03L23.04 0L34.2 0L30.6 -42.83L15.86 -42.83L-5.93 0L5.96 0L9.62 -8.03ZM13.81 -17.17L20.17 -31.08C20.89 -32.65 21.49 -34.27 21.96 -35.95C21.88 -34.85 21.84 -33.57 21.84 -32.11L21.9 -29.59L22.4 -17.17Z M74.19 -22.15C73.92 -24.53 73.69 -26.19 73.49 -27.13L70.3 -42.83L58.61 -42.83L66.81 -12.3C66.03 -10.72 65.23 -9.7 64.42 -9.23C63.61 -8.76 62.4 -8.53 60.78 -8.53C59.35 -8.53 57.67 -8.76 55.74 -9.23L55.74 -0.23C57.92 0.31 60 0.59 61.98 0.59C65.69 0.59 68.73 -0.17 71.09 -1.67C73.45 -3.17 75.71 -5.84 77.86 -9.67L96.52 -42.83L83.86 -42.83L76.42 -26.95C75.54 -24.94 74.89 -23.34 74.46 -22.15Z M116.47 -33.96C118.11 -33.96 119.69 -33.69 121.22 -33.15C122.74 -32.61 124.41 -31.81 126.23 -30.73L130.56 -39.67C126.34 -42.23 121.65 -43.51 116.47 -43.51C112.08 -43.51 108.17 -42.4 104.77 -40.2C101.36 -37.99 98.66 -34.72 96.68 -30.38C94.7 -26.04 93.71 -21.28 93.71 -16.08C93.71 -10.77 95.08 -6.67 97.82 -3.76C100.57 -0.86 104.48 0.59 109.56 0.59C114.18 0.59 118.48 -0.29 122.45 -2.05L122.45 -11.51C120.2 -10.56 118.25 -9.88 116.59 -9.48C114.93 -9.08 113.29 -8.88 111.67 -8.88C109.61 -8.88 108.04 -9.52 106.95 -10.81C105.85 -12.1 105.31 -14.05 105.31 -16.67C105.31 -19.79 105.79 -22.7 106.76 -25.37C107.72 -28.05 109.06 -30.15 110.76 -31.67C112.46 -33.19 114.36 -33.96 116.47 -33.96Z M150.89 0L162.35 0L171.28 -42.83L143.16 -42.83C139.7 -29.45 136.98 -20.25 134.99 -15.23C134.32 -13.55 133.68 -12.23 133.05 -11.26C132.43 -10.3 131.81 -9.6 131.21 -9.17C130.6 -8.74 129.78 -8.53 128.75 -8.53C128.37 -8.53 128 -8.55 127.63 -8.6C127.26 -8.65 126.64 -8.82 125.76 -9.11L125.76 -0.18C127.2 0.33 128.72 0.59 130.3 0.59C133.01 0.59 135.24 0.18 136.99 -0.64C138.74 -1.46 140.29 -2.79 141.65 -4.63C143.01 -6.46 144.39 -9.12 145.8 -12.6C146.83 -15.04 148.93 -22.08 152.09 -33.72L157.92 -33.72Z M191.44 -22.15C191.17 -24.53 190.93 -26.19 190.74 -27.13L187.54 -42.83L175.85 -42.83L184.06 -12.3C183.28 -10.72 182.48 -9.7 181.67 -9.23C180.86 -8.76 179.64 -8.53 178.02 -8.53C176.6 -8.53 174.92 -8.76 172.98 -9.23L172.98 -0.23C175.17 0.31 177.25 0.59 179.22 0.59C182.93 0.59 185.97 -0.17 188.33 -1.67C190.7 -3.17 192.95 -5.84 195.1 -9.67L213.76 -42.83L201.11 -42.83L193.67 -26.95C192.79 -24.94 192.13 -23.34 191.7 -22.15Z M220.91 0L228 -33.49L241.8 -33.49L243.76 -42.83L218.51 -42.83L209.46 0Z M260.55 -22.15C260.28 -24.53 260.04 -26.19 259.85 -27.13L256.66 -42.83L244.97 -42.83L253.17 -12.3C252.39 -10.72 251.59 -9.7 250.78 -9.23C249.97 -8.76 248.75 -8.53 247.13 -8.53C245.71 -8.53 244.03 -8.76 242.09 -9.23L242.09 -0.23C244.28 0.31 246.36 0.59 248.33 0.59C252.05 0.59 255.08 -0.17 257.45 -1.67C259.81 -3.17 262.07 -5.84 264.21 -9.67L282.88 -42.83L270.22 -42.83L262.78 -26.95C261.9 -24.94 261.25 -23.34 260.82 -22.15Z"/></g></g></svg>